<svg id="Layer_1" data-name="Layer 1" xmlns="http://www.w3.org/2000/svg" viewBox="0 0 1024 195"><defs><style>.cls-1{fill:#5ac8ff;}.cls-2{fill:#329bff;}.cls-3{fill:#0a6dff;}</style></defs><path class="cls-1" d="M843.86,189.13H767.31c-3.69,0-5.74-2.19-4.48-5.4l59-152.7c2.8-7.91,9.08-5.24,9.58-.63L849,183.1C849.44,187.51,847.94,189.15,843.86,189.13Z"/><path class="cls-2" d="M928.19,144H857.76a4.47,4.47,0,0,1-4.34-3.69L835,7.29c-1.23-7.19,5.8-8.75,8.83-3.81l88.85,133C934.87,139.88,932.17,144,928.19,144Z"/><path class="cls-3" d="M1017.52,161.21l-52.16-.36c-3.21,0-5.07-1.17-7.17-3.92L874.68,38.85c-4.65-6.71,2.83-12.29,7.59-7.89l137.55,118.93a7.84,7.84,0,0,1,2.8,5C1023,158.65,1020.76,161.21,1017.52,161.21Z"/><path d="M73.54,112.75H27.62l-8.76,22.41H.91l41.38-103H58.18l42.59,103H82.44ZM33.46,97.62h34.2L50.43,54.2Z"/><path d="M181.77,97.05H162.24v38.11h-16.9v-103h40.08c19.84,0,34.6,13.58,34.6,32.58,0,14-8.35,25.23-20.94,29.92l23.78,40.48h-19ZM162.24,81.23h22.19c11.2,0,18.4-6.93,18.4-16.61S195.63,48,184.43,48H162.24Z"/><path d="M316.61,137c-30.47,0-52.94-22.55-52.94-53.28s22.47-53.36,52.94-53.36c24.36,0,43.89,15.18,49.29,38.37H348.79c-4.92-13.72-16.93-22-32.18-22-20.63,0-35.75,15.53-35.75,37s15.12,36.92,35.75,36.92c15.73,0,27.89-8.88,32.53-23.48h17.15C360.94,121.37,341.41,137,316.61,137Z"/><path d="M481.05,48H450.86v87.21H434V48H403.77V32.18h77.28Z"/><path d="M526.73,32.18h16.9v103h-16.9Z"/><path d="M682.16,123.56c10.76-9.62,17.24-23.68,17.24-39.89,0-30.53-23-53.42-54.24-53.42s-54.33,22.93-54.33,53.42,23.06,53.43,54.33,53.43A57.33,57.33,0,0,0,670,131.63l13,15.15h19.06Zm-23.39-5.1h0a39.29,39.29,0,0,1-13.58,2.36c-21.24,0-37.14-16-37.14-37.16S624,46.5,645.19,46.5s37,15.9,37,37.16a37,37,0,0,1-11.06,27h0a31.5,31.5,0,0,1-12.41,7.8Z"/><path d="M327.3,182.47H315.39l-2.46,5.6h-3.3l10.15-22.39H323l10.17,22.39h-3.36Zm-1.12-2.55-4.83-11-4.84,11Z"/><path d="M364.32,182c0,3.84-2.91,6-8.57,6H345.06V165.68h10.05c5.15,0,8,2.17,8,5.79a5.32,5.32,0,0,1-3,5A5.41,5.41,0,0,1,364.32,182Zm-16.06-13.76v7.17h6.56c3.26,0,5.12-1.22,5.12-3.59s-1.86-3.58-5.12-3.58Zm12.83,13.5c0-2.59-1.92-3.74-5.47-3.74h-7.36v7.45h7.36C359.17,185.48,361.09,184.36,361.09,181.77Z"/><path d="M384.1,180.62H370.34c.38,3,2.78,5,6.14,5a6.34,6.34,0,0,0,4.9-2.05l1.69,2a8.47,8.47,0,0,1-6.68,2.76c-5.48,0-9.12-3.62-9.12-8.68a8.3,8.3,0,0,1,8.51-8.63c4.89,0,8.38,3.52,8.38,8.73C384.16,180,384.13,180.33,384.1,180.62Zm-13.76-2.21h10.88a5.47,5.47,0,0,0-10.88,0Z"/><path d="M404.51,178.31v9.76h-3.07v-9.4c0-3.33-1.66-5-4.57-5-3.27,0-5.38,1.95-5.38,5.63v8.73h-3.07V171.12h2.94v2.55a7.29,7.29,0,0,1,6.11-2.71C401.6,171,404.51,173.32,404.51,178.31Z"/><path d="M408.74,179.59c0-5.05,3.74-8.63,9-8.63a7.56,7.56,0,0,1,6.91,3.61l-2.34,1.51a5.28,5.28,0,0,0-4.6-2.44,6,6,0,0,0,0,11.94,5.29,5.29,0,0,0,4.6-2.43l2.34,1.47a7.59,7.59,0,0,1-6.91,3.65C412.48,188.27,408.74,184.65,408.74,179.59Z"/><path d="M444.45,178.31v9.76h-3.07v-9.4c0-3.33-1.67-5-4.58-5-3.26,0-5.37,1.95-5.37,5.63v8.73h-3.08V164.33h3.08v9.19a7.32,7.32,0,0,1,6-2.56C441.54,171,444.45,173.32,444.45,178.31Z"/><path d="M478.3,178.31v9.76h-3.07v-9.4c0-3.33-1.6-5-4.38-5-3.07,0-5.09,1.95-5.09,5.63v8.73h-3.07v-9.4c0-3.33-1.6-5-4.38-5-3.08,0-5.09,1.95-5.09,5.63v8.73h-3.07V171.12h2.94v2.52a6.9,6.9,0,0,1,5.85-2.68,6.27,6.27,0,0,1,5.89,3.13,7.64,7.64,0,0,1,6.53-3.13C475.49,171,478.3,173.32,478.3,178.31Z"/><path d="M500.06,171.12v16.95h-2.94v-2.68a7.17,7.17,0,0,1-6.05,2.88,8.66,8.66,0,0,1,0-17.31,7.22,7.22,0,0,1,5.92,2.71v-2.55Zm-3,8.47a5.72,5.72,0,1,0-5.69,6C494.56,185.58,497,183.21,497,179.59Z"/><path d="M515,171v3a5.86,5.86,0,0,0-.71,0c-3.29,0-5.34,2-5.34,5.73v8.44h-3.07V171.12h2.94V174C509.92,172,512,171,515,171Z"/><path d="M525.38,180.17l-3.52,3.26v4.64h-3.07V164.33h3.07v15.23l9.24-8.44h3.72l-7.14,7,7.84,9.95h-3.78Z"/><path d="M545.73,176.88c0-6.63,5.06-11.46,11.87-11.46a11,11,0,0,1,8.51,3.49l-2.08,2a8.31,8.31,0,0,0-6.3-2.65,8.61,8.61,0,1,0,0,17.21,8.31,8.31,0,0,0,6.3-2.69l2.08,2a11.12,11.12,0,0,1-8.54,3.52C550.79,188.33,545.73,183.5,545.73,176.88Z"/><path d="M568,179.59a8.82,8.82,0,1,1,8.83,8.68A8.43,8.43,0,0,1,568,179.59Zm14.53,0a5.72,5.72,0,1,0-5.7,6C580.06,185.58,582.5,183.21,582.5,179.59Z"/><path d="M618,178.31v9.76h-3.07v-9.4c0-3.33-1.6-5-4.38-5-3.07,0-5.09,1.95-5.09,5.63v8.73H602.4v-9.4c0-3.33-1.6-5-4.38-5-3.08,0-5.09,1.95-5.09,5.63v8.73h-3.07V171.12h2.94v2.52a6.9,6.9,0,0,1,5.86-2.68,6.27,6.27,0,0,1,5.88,3.13,7.64,7.64,0,0,1,6.53-3.13C615.2,171,618,173.32,618,178.31Z"/><path d="M641.25,179.59a8.25,8.25,0,0,1-8.58,8.68,7.24,7.24,0,0,1-5.92-2.76v8.77h-3.07V171.12h2.94v2.68a7.25,7.25,0,0,1,6-2.84A8.23,8.23,0,0,1,641.25,179.59Zm-3.11,0a5.72,5.72,0,1,0-5.72,6A5.6,5.6,0,0,0,638.14,179.59Z"/><path d="M661.5,171.12v16.95h-2.94v-2.68a7.17,7.17,0,0,1-6,2.88,8.66,8.66,0,0,1,0-17.31,7.22,7.22,0,0,1,5.92,2.71v-2.55Zm-3,8.47a5.72,5.72,0,1,0-5.69,6C656,185.58,658.46,183.21,658.46,179.59Z"/><path d="M683.42,178.31v9.76h-3.07v-9.4c0-3.33-1.66-5-4.57-5-3.27,0-5.38,1.95-5.38,5.63v8.73h-3.07V171.12h2.94v2.55a7.29,7.29,0,0,1,6.11-2.71C680.51,171,683.42,173.32,683.42,178.31Z"/><path d="M703.81,171.12l-8.23,18.65c-1.5,3.58-3.45,4.7-6,4.7a6.39,6.39,0,0,1-4.36-1.56l1.32-2.31a4.32,4.32,0,0,0,3,1.25c1.47,0,2.4-.67,3.23-2.62l.54-1.19-7.49-16.92H689l5.92,13.56,5.86-13.56Z"/></svg>