<?xml version="1.0" encoding="utf-8"?>
<!-- Generator: Adobe Illustrator 16.0.0, SVG Export Plug-In . SVG Version: 6.00 Build 0)  -->
<!DOCTYPE svg PUBLIC "-//W3C//DTD SVG 1.1//EN" "http://www.w3.org/Graphics/SVG/1.1/DTD/svg11.dtd">
<svg version="1.1" id="Calque_1" xmlns="http://www.w3.org/2000/svg" xmlns:xlink="http://www.w3.org/1999/xlink" x="0px" y="0px"
	 width="1774px" height="551px" viewBox="0 0 1774 551" enable-background="new 0 0 1774 551" xml:space="preserve">
<g>
	<defs>
		<rect id="SVGID_1_" width="1774" height="551"/>
	</defs>
	<clipPath id="SVGID_2_">
		<use xlink:href="#SVGID_1_"  overflow="visible"/>
	</clipPath>
	<path clip-path="url(#SVGID_2_)" fill="#010202" d="M1585.256,388.363H150.068c-35.663,0-56.57-29.081-46.461-64.625l34.974-122.96
		c10.11-35.544,47.561-64.625,83.224-64.625h1435.187c35.663,0,56.571,29.081,46.461,64.625l-34.974,122.96
		C1658.369,359.282,1620.918,388.363,1585.256,388.363"/>
</g>
<g>
	<defs>
		<polygon id="SVGID_3_" points="1571.811,223.458 1520.748,197.852 1531.483,253.957 1491.349,294.607 1548.027,301.735 
			1574.285,352.465 1598.579,300.766 1654.941,291.469 1613.278,252.388 1621.852,195.912 		"/>
	</defs>
	<clipPath id="SVGID_4_">
		<use xlink:href="#SVGID_3_"  overflow="visible"/>
	</clipPath>
	
		<linearGradient id="SVGID_5_" gradientUnits="userSpaceOnUse" x1="0" y1="550.9355" x2="1" y2="550.9355" gradientTransform="matrix(114.5988 -114.5988 -114.5988 -114.5988 64658.5625 63461.8125)">
		<stop  offset="0" style="stop-color:#255FAA"/>
		<stop  offset="1" style="stop-color:#2689CA"/>
	</linearGradient>
	<polygon clip-path="url(#SVGID_4_)" fill="url(#SVGID_5_)" points="1413.072,274.188 1573.145,114.116 1733.218,274.188 
		1573.145,434.261 	"/>
</g>
<g>
	<defs>
		<rect id="SVGID_6_" width="1774" height="551"/>
	</defs>
	<clipPath id="SVGID_7_">
		<use xlink:href="#SVGID_6_"  overflow="visible"/>
	</clipPath>
	<path clip-path="url(#SVGID_7_)" fill="#FFFFFF" d="M290.238,345.565H173.631c-8.211,0-14.954-1.95-20.221-5.851
		c-5.267-3.9-7.904-9.477-7.904-16.732c0-3.829,0.754-7.935,2.258-12.317l38.596-110.448c4.24-12.179,12.041-18.271,23.403-18.271
		h138.368l-13.55,38.596h-96.898c-9.033,0-14.576,3.079-16.629,9.238c0.411-1.505-7.734,21.556-24.43,69.184
		c-0.138,0.549-0.205,1.098-0.205,1.643c0,4.244,3.419,6.364,10.264,6.364h97.309L290.238,345.565z"/>
	<path clip-path="url(#SVGID_7_)" fill="#FFFFFF" d="M530.018,225.264l-37.158,105.11c-1.918,5.337-5.408,9.376-10.47,12.112
		c-3.971,2.053-8.282,3.079-12.933,3.079H350.592c-16.423,0-24.635-7.048-24.635-21.146c0-6.294,1.575-13.616,4.722-21.966
		l3.49-8.622l33.668-96.488c1.777-5.338,5.2-9.373,10.265-12.113c4.105-2.187,8.484-3.284,13.138-3.284h118.865
		c16.286,0,24.43,7.051,24.43,21.145C534.535,208.978,533.027,216.369,530.018,225.264 M482.185,233.27
		c0.545-1.366,0.821-2.736,0.821-4.106c0-5.748-2.464-8.622-7.39-8.622h-59.535c-7.939,0-13.344,4.106-16.219,12.317l-21.35,61.383
		c-0.549,1.37-0.821,2.807-0.821,4.311c0,5.613,2.463,8.417,7.39,8.417h59.535c4.927,0,8.69-1.231,11.292-3.694
		c1.642-1.643,3.214-4.446,4.721-8.417L482.185,233.27z"/>
	<path clip-path="url(#SVGID_7_)" fill="#FFFFFF" d="M725.251,225.264L682.55,345.565h-44.343l39.211-112.296
		c0.411-1.366,0.616-2.736,0.616-4.106c0-5.748-2.396-8.622-7.185-8.622h-59.536c-8.077,0-13.481,4.106-16.218,12.318
		l-39.211,112.706H511.13l57.277-163.619h136.931c16.285,0,24.43,7.051,24.43,21.145
		C729.768,208.978,728.26,216.369,725.251,225.264"/>
	<path clip-path="url(#SVGID_7_)" fill="#FFFFFF" d="M918.842,181.947l-49.271,139.805c-5.613,15.878-17.793,23.813-36.542,23.813
		H704.721l13.549-38.596h95.872c4.651,0,8.895-1.093,12.728-3.284c3.42-2.053,5.678-4.517,6.775-7.391l40.648-114.348H918.842z"/>
	<path clip-path="url(#SVGID_7_)" fill="#FFFFFF" d="M1112.43,181.947l-51.939,148.427c-1.779,5.338-5.203,9.376-10.264,12.111
		c-4.105,2.054-8.488,3.08-13.139,3.08H918.223c-16.285,0-24.43-6.979-24.43-20.939c0-6.021,1.574-13.412,4.722-22.172l42.7-120.507
		h44.139l-39.211,112.295c-0.41,1.369-0.615,2.807-0.615,4.311c0,5.614,2.393,8.417,7.186,8.417h59.533
		c8.074,0,13.48-4.035,16.219-12.112l39.211-112.911H1112.43z"/>
	<path clip-path="url(#SVGID_7_)" fill="#FFFFFF" d="M1310.741,181.947l-13.755,38.595h-112.295c-4.654,0-8.796,1.062-12.42,3.182
		c-3.628,2.124-5.922,4.619-6.878,7.494l-40.647,114.348h-44.754l49.27-139.805c5.61-15.875,17.861-23.814,36.748-23.814H1310.741z"
		/>
	<path clip-path="url(#SVGID_7_)" fill="#FFFFFF" d="M1493.656,223.127l-21.35,60.234h-129.336l-3.489,10.563
		c-0.959,2.624-1.437,4.831-1.437,6.627c0,4.278,2.735,6.419,8.211,6.419h117.838l-13.549,38.595h-127.076
		c-24.09,0-36.132-7.525-36.132-22.583c0-4.24,1.507-10.742,4.517-19.502l37.568-108.806c3.008-8.484,10.332-12.728,21.967-12.728
		h120.507c17.245,0,25.866,7.105,25.866,21.309C1497.762,208.583,1496.393,215.208,1493.656,223.127 M1445.823,231.127
		c0.272-0.815,0.411-1.697,0.411-2.646c0-5.293-3.355-7.939-10.06-7.939h-57.482c-4.927,0-8.417,0.339-10.47,1.016
		c-2.875,1.088-4.793,3.125-5.748,6.108l-5.543,17.1h84.375L1445.823,231.127z"/>
</g>
</svg>
