<svg xmlns="http://www.w3.org/2000/svg" viewBox="0 0 567.96 165.72"><defs><style>.cls-1{fill:#ea0029;}.cls-2{fill:none;}.cls-3{fill:#fff;}</style></defs><title>Asset 1</title><g id="Layer_2" data-name="Layer 2"><g id="Layer_2-2" data-name="Layer 2"><circle class="cls-1" cx="83.11" cy="82.77" r="80.36"/><rect class="cls-2" x="103.51" y="105.68" width="21.05" height="21.05"/><rect class="cls-2" x="82.28" y="20.73" width="21.04" height="21.04"/><rect class="cls-2" x="103.51" y="126.91" width="21.05" height="21.04"/><rect class="cls-2" x="103.51" y="84.44" width="21.05" height="21.04"/><rect class="cls-2" x="103.51" y="63.2" width="21.05" height="21.05"/><rect class="cls-2" x="82.28" y="84.44" width="21.04" height="21.04"/><rect class="cls-2" x="82.28" y="63.2" width="21.04" height="21.05"/><rect class="cls-2" x="82.28" y="41.97" width="21.04" height="21.04"/><rect class="cls-2" x="124.75" y="105.68" width="21.04" height="21.05"/><rect class="cls-2" x="82.28" y="105.68" width="21.04" height="21.05"/><rect class="cls-2" x="124.75" y="84.44" width="21.04" height="21.04"/><rect class="cls-2" x="124.75" y="41.97" width="21.04" height="21.04"/><rect class="cls-2" x="103.51" y="20.73" width="21.05" height="21.04"/><rect class="cls-2" x="103.51" y="41.97" width="21.05" height="21.04"/><rect class="cls-2" x="124.75" y="63.2" width="21.04" height="21.05"/><rect class="cls-2" x="18.57" y="105.68" width="21.04" height="21.05"/><rect class="cls-2" x="39.8" y="63.2" width="21.04" height="21.05"/><rect class="cls-2" x="61.04" y="126.91" width="21.04" height="21.04"/><rect class="cls-2" x="82.28" y="126.91" width="21.04" height="21.04"/><rect class="cls-2" x="39.8" y="20.73" width="21.04" height="21.04"/><rect class="cls-2" x="39.8" y="84.44" width="21.04" height="21.04"/><rect class="cls-2" x="39.8" y="126.91" width="21.04" height="21.04"/><rect class="cls-2" x="39.8" y="105.68" width="21.04" height="21.05"/><rect class="cls-2" x="18.57" y="63.2" width="21.04" height="21.05"/><rect class="cls-2" x="18.57" y="84.44" width="21.04" height="21.04"/><rect class="cls-2" x="18.57" y="41.97" width="21.04" height="21.04"/><rect class="cls-2" x="39.8" y="41.97" width="21.04" height="21.04"/><rect class="cls-2" x="61.04" y="84.44" width="21.04" height="21.04"/><rect class="cls-2" x="61.04" y="63.2" width="21.04" height="21.05"/><rect class="cls-2" x="61.04" y="20.73" width="21.04" height="21.04"/><rect class="cls-2" x="61.04" y="105.68" width="21.04" height="21.05"/><rect class="cls-2" x="61.04" y="41.97" width="21.04" height="21.04"/><path class="cls-3" d="M146,132.78v-5.87h4.26l.12-.19H146v-21h14.15a1.05,1.05,0,0,1,.05-.19H146v-21h17.44v-.19H146v-21h15.07c0-.06,0-.12-.05-.19H146V42h6.34a1.18,1.18,0,0,0-.11-.19H146v-9c-.07-.08-.13-.17-.19-.25v9.27H124.75v-21h9.44l-.24-.19h-9.2V14l-.19-.11v6.62h-21V5L103.32,5V20.54h-21V2.43h-.19V20.54H61V5.5l-.19,0v15H39.8V15.08l-.19.13v5.33H32.26l-.24.19h7.59V41.78h-21v-6.9l-.19.27v6.63H14a1.18,1.18,0,0,0-.11.19h4.5V63H5.2c0,.07,0,.13,0,.19H18.38v21H2.78a1.21,1.21,0,0,0,0,.19H18.38v21H6a1.05,1.05,0,0,1,.05.19H18.38v21H15.84l.12.19h2.42v3.47a2.61,2.61,0,0,0,.19.27v-3.74h21V148H36.14l.27.19h3.2v2.18l.19.12v-2.3H60.85V160L61,160V148.15H82.09V163.1h.19v-15h21v12.41l.19-.05V148.15h21v3.47l.19-.11v-3.36h5.05l.27-.19h-5.32V126.91H145.8V133ZM39.61,126.72h-21v-21h21Zm0-21.23h-21v-21h21Zm0-21.24h-21v-21h21Zm0-21.24h-21V42h21Zm21.24,85H39.8V126.91H60.85Zm0-21.24H39.8v-21H60.85Zm0-21.23H39.8v-21H60.85Zm0-21.24H39.8v-21H60.85Zm0-21.24H39.8V42H60.85Zm0-21.23H39.8v-21H60.85ZM82.09,148H61V126.91H82.09Zm0-21.24H61v-21H82.09Zm0-21.23H61v-21H82.09Zm0-21.24H61v-21H82.09Zm0-21.24H61V42H82.09Zm0-21.23H61v-21H82.09ZM103.32,148h-21V126.91h21Zm0-21.24h-21v-21h21Zm0-21.23h-21v-21h21Zm0-21.24h-21v-21h21Zm0-21.24h-21V42h21Zm0-21.23h-21v-21h21ZM124.56,148h-21V126.91h21Zm0-21.24h-21v-21h21Zm0-21.23h-21v-21h21Zm0-21.24h-21v-21h21Zm0-21.24h-21V42h21Zm0-21.23h-21v-21h21Zm.19.19H145.8V63H124.75Zm0,21.23H145.8v21H124.75Zm0,21.24H145.8v21H124.75Zm0,42.28v-21H145.8v21Z"/><circle class="cls-1" cx="41.93" cy="48.2" r="2.6"/><circle class="cls-1" cx="27.63" cy="60.22" r="2.6"/><circle class="cls-1" cx="66.62" cy="124.27" r="2.6"/><circle class="cls-1" cx="97.81" cy="124.27" r="2.6"/><circle class="cls-1" cx="76.07" cy="64.07" r="2.6"/><circle class="cls-1" cx="88.07" cy="64.07" r="2.6"/><circle class="cls-1" cx="120.85" cy="99.51" r="2.6"/><circle class="cls-1" cx="43.57" cy="99.61" r="2.6"/><circle class="cls-1" cx="136.11" cy="59.54" r="2.6"/><circle class="cls-1" cx="123.31" cy="59.54" r="2.6"/><circle class="cls-1" cx="130.21" cy="70.69" r="2.6"/><circle class="cls-1" cx="130.92" cy="83.65" r="2.6"/><path class="cls-3" d="M45.07,49.91a3.42,3.42,0,0,0,.47-1.71,3.52,3.52,0,0,0-7,0,3.59,3.59,0,0,0,.22,1.19l-9.27,7.79a3.5,3.5,0,1,0-1.73,6.55h0l7.44,20.33a1.19,1.19,0,0,0,1.13.79h36a1.21,1.21,0,0,0,1.1-.7,1.2,1.2,0,0,0-.18-1.29Zm-3-3.39a1.68,1.68,0,1,1-1.68,1.68A1.68,1.68,0,0,1,42,46.52Zm-16,13.7a1.68,1.68,0,1,1,1.68,1.68A1.68,1.68,0,0,1,26.05,60.22Zm11.1,22.22L30,62.88A3.43,3.43,0,0,0,31,59l9.27-7.78a3.39,3.39,0,0,0,3,.24l26.47,31Z"/><path class="cls-3" d="M72,89.8,46.68,97.5a3.5,3.5,0,1,0-1.42,5.34l18.55,19.85a3.51,3.51,0,1,0,4.83-1.47l4.87-30.07A1.2,1.2,0,0,0,72,89.8ZM42.21,99.61a1.68,1.68,0,1,1,1.68,1.68A1.68,1.68,0,0,1,42.21,99.61ZM66.93,126a1.68,1.68,0,1,1,1.68-1.68A1.68,1.68,0,0,1,66.93,126Zm-.66-5.13a3.26,3.26,0,0,0-.71.22L47,101.19a3.58,3.58,0,0,0,.37-1.38l23.45-7.14Z"/><path class="cls-3" d="M120.65,96a3.49,3.49,0,0,0-2.85,1.48L92.56,89.8a1.19,1.19,0,0,0-1.14.25,1.23,1.23,0,0,0-.4,1.1l4.87,30.07a3.52,3.52,0,1,0,4.84,1.47l18.62-19.92a3.51,3.51,0,1,0,1.3-6.77Zm-3.48,3.81a3.59,3.59,0,0,0,.39,1.34L99,121a3.44,3.44,0,0,0-.71-.22L93.71,92.67ZM97.61,126a1.68,1.68,0,1,1,1.68-1.68A1.68,1.68,0,0,1,97.61,126Zm23-24.76a1.68,1.68,0,1,1,1.68-1.68A1.68,1.68,0,0,1,120.65,101.19Z"/><path class="cls-3" d="M136.21,56a3.39,3.39,0,0,0-1.67.45L123.29,47a1.2,1.2,0,0,0-1.69.13L91.3,82.56a1.2,1.2,0,0,0,.91,2h35.43a3.52,3.52,0,1,0,.22-2.41h-8.1l6.6-8.13,1.55-.76a3.5,3.5,0,1,0-1.12-2.56,2.57,2.57,0,0,0,0,.4l-1.78.88a1.07,1.07,0,0,0-.41.32l-8,9.85h-6.94l14.42-17a1.12,1.12,0,0,0,.28-.65l.19-1.66s0,0,0,0a3.51,3.51,0,1,0-2.41,0l-.12,1.08L106.69,82a.75.75,0,0,0-.09.15H94.83l27.82-32.55,10.29,8.69A3.5,3.5,0,1,0,136.21,56Zm-5.9,13a1.68,1.68,0,1,1-1.68,1.68A1.69,1.69,0,0,1,130.31,69Zm-6.9-11.15a1.68,1.68,0,1,1-1.68,1.68A1.68,1.68,0,0,1,123.41,57.86ZM131,82a1.68,1.68,0,1,1-1.68,1.68A1.68,1.68,0,0,1,131,82Zm5.19-20.75a1.68,1.68,0,1,1,1.68-1.68A1.69,1.69,0,0,1,136.21,61.22Z"/><path class="cls-3" d="M91.67,64.07a3.51,3.51,0,0,0-6.77-1.3H79.41a3.51,3.51,0,1,0-4,4.72L81,111.58a1.21,1.21,0,0,0,2.39,0l5.58-44.09A3.52,3.52,0,0,0,91.67,64.07Zm-17.2,0a1.68,1.68,0,1,1,1.68,1.68A1.69,1.69,0,0,1,74.47,64.07Zm7.69,37.75L77.77,67.17a3.52,3.52,0,0,0,1.7-2h5.37a3.52,3.52,0,0,0,1.7,2Zm6-36.07a1.68,1.68,0,1,1,1.68-1.68A1.68,1.68,0,0,1,88.16,65.75Z"/><path class="cls-3" d="M189.65,74V48.65h6.18V69.53h14.38V74Z"/><path class="cls-3" d="M214.24,74V48.65h20.84v4.46H220.41V58.9h13.82v4.42H220.41v6.21h15V74Z"/><path class="cls-3" d="M251,74.65c-9.15,0-11.82-3.83-12-8.67h6.21c.07,3.3,2.67,4.42,6,4.42,4.63,0,6.18-1.65,6.18-3.36s-1.51-2.46-4.74-3.06l-4.88-.91c-4.06-.77-8.13-2.24-8.13-6.94,0-5.76,5.4-8.14,11.64-8.14,6.84,0,11.58,2.49,11.68,7.75h-6.21c-.24-2.91-2.73-3.51-5.61-3.51-3.4,0-5.33,1.3-5.33,3.19s2.42,2.5,4.88,2.95l4.73.88c4.39.81,8.14,2,8.14,7.12C263.52,72.79,257.35,74.65,251,74.65Z"/><path class="cls-3" d="M281.58,74V48.65h6.17V74Z"/><path class="cls-3" d="M312.59,74,299.68,54V74h-5.41V48.65h8.35l12.91,20v-20h5.41V74Z"/><path class="cls-3" d="M341.91,74.65c-9.58,0-15.93-4.32-15.93-13.44C326,52.58,332.15,48,341.21,48c6.59,0,12.59,2.07,13,8.24h-6.45c-.36-2.91-3-4-6.46-4-6,0-8.94,3.72-8.94,9,0,5.82,3.08,9.22,9.78,9.22a24.38,24.38,0,0,0,6.35-1v-5h-7.15V60.27h12.91v12.8A52.19,52.19,0,0,1,341.91,74.65Z"/><path class="cls-3" d="M359.93,74V48.65h20.84v4.46H366.11V58.9h13.82v4.42H366.11v6.21h15V74Zm12-27.08h-4.7l4-4.91h6.39Z"/><path class="cls-3" d="M404.65,74l-12.9-20V74h-5.41V48.65h8.35l12.91,20v-20H413V74Z"/><path class="cls-3" d="M419.52,74V48.65h6.18V74Z"/><path class="cls-3" d="M432.22,74V48.65h20.84v4.46H438.39V58.9h13.82v4.42H438.39v6.21h15V74Z"/><path class="cls-3" d="M471.5,74.65c-8.24,0-13.12-3.05-13.12-11.12V48.65h6.18V63.28c0,4.88,2.42,7,6.94,7,5,0,6.88-2.73,6.88-7.61v-14h6.17V62.86C484.55,71.14,479.57,74.65,471.5,74.65Z"/><path class="cls-3" d="M501.14,74.65c-9.16,0-11.82-3.83-12-8.67h6.21c.07,3.3,2.66,4.42,6,4.42,4.63,0,6.18-1.65,6.18-3.36S506,64.58,502.79,64l-4.88-.91c-4.07-.77-8.14-2.24-8.14-6.94,0-5.76,5.41-8.14,11.65-8.14,6.84,0,11.58,2.49,11.68,7.75h-6.21c-.24-2.91-2.73-3.51-5.61-3.51-3.4,0-5.33,1.3-5.33,3.19s2.42,2.5,4.87,2.95l4.74.88c4.39.81,8.14,2,8.14,7.12C513.7,72.79,507.53,74.65,501.14,74.65Z"/><path class="cls-3" d="M518.68,74V48.65h20.83v4.46H524.85V58.9h13.82v4.42H524.85v6.21h15V74Z"/><path class="cls-3" d="M555.4,74.65c-9.16,0-11.82-3.83-12-8.67h6.21c.07,3.3,2.66,4.42,6,4.42,4.63,0,6.17-1.65,6.17-3.36s-1.51-2.46-4.73-3.06l-4.88-.91c-4.07-.77-8.14-2.24-8.14-6.94,0-5.76,5.41-8.14,11.65-8.14,6.84,0,11.58,2.49,11.68,7.75h-6.21c-.24-2.91-2.73-3.51-5.61-3.51-3.4,0-5.33,1.3-5.33,3.19s2.42,2.5,4.87,2.95l4.74.88c4.38.81,8.14,2,8.14,7.12C568,72.79,561.78,74.65,555.4,74.65Z"/><path class="cls-3" d="M202.18,116.07H189.65V90.74h12.7c9,0,14.59,3.51,14.59,12.49S211.16,116.07,202.18,116.07ZM200.84,95h-5v16.84h4.45c6.74,0,10.28-2.18,10.28-8.49C210.56,97.2,207.26,95,200.84,95Z"/><path class="cls-3" d="M222,116.07V90.74h20.84V95.2H228.16V101H242v4.42H228.16v6.21h15v4.45Z"/><path class="cls-3" d="M261.48,116.07V90.74h6.18v20.88H282v4.45Z"/><path class="cls-3" d="M287.33,99.58V90.74h3.93v8.84Z"/><path class="cls-3" d="M299.05,116.07V90.74h20.83V95.2H305.22V101H319v4.42H305.22v6.21h15v4.45ZM311,89h-4.7l4-4.91h6.38Z"/><path class="cls-3" d="M338.65,95.2v20.87h-6.18V95.2H322.4V90.74h26.31V95.2Z"/><path class="cls-3" d="M362.49,116.74c-9.15,0-11.82-3.83-12-8.67h6.21c.07,3.3,2.67,4.42,6,4.42,4.64,0,6.18-1.65,6.18-3.37s-1.51-2.45-4.74-3.05l-4.87-.91c-4.07-.77-8.14-2.24-8.14-7,0-5.75,5.4-8.13,11.64-8.13,6.85,0,11.58,2.49,11.69,7.75h-6.21c-.25-2.91-2.74-3.51-5.62-3.51-3.4,0-5.33,1.3-5.33,3.19s2.42,2.49,4.88,2.95l4.73.88c4.39.8,8.14,2,8.14,7.12C375.05,114.88,368.88,116.74,362.49,116.74Z"/><path class="cls-3" d="M82.86,165.72a82.86,82.86,0,1,1,82.86-82.86A83,83,0,0,1,82.86,165.72ZM82.86,5a77.86,77.86,0,1,0,77.86,77.86A78,78,0,0,0,82.86,5Z"/></g></g></svg>